<svg width="16" height="16" viewBox="0 0 16 16" fill="none" xmlns="http://www.w3.org/2000/svg">
<path d="M6.22352 4.17268V9.84789C6.22352 10.3388 6.62149 10.7368 7.11241 10.7368H10.287M6.22352 4.17268V1.77951C6.22352 1.28859 6.62149 0.890625 7.11241 0.890625H10.9153C11.1624 0.890625 11.3985 0.993543 11.5666 1.17467L13.0971 2.82287C13.2498 2.98729 13.3346 3.20335 13.3346 3.42772V9.84789C13.3346 10.3388 12.9367 10.7368 12.4457 10.7368H10.287M6.22352 4.17268H3.55686C3.06594 4.17268 2.66797 4.57065 2.66797 5.06157V14.224C2.66797 14.7149 3.06594 15.1128 3.55686 15.1128H9.39813C9.88905 15.1128 10.287 14.7149 10.287 14.224V10.7368" stroke="white" stroke-width="1.5"/>
</svg>
