<svg width="18" height="20" viewBox="0 0 18 20" fill="none" xmlns="http://www.w3.org/2000/svg">
<g clip-path="url(#clip0_5:348)">
<path d="M6.36608 9.54427C6.36131 9.44009 6.37763 9.33601 6.41405 9.23834C6.45047 9.14066 6.50624 9.05142 6.57799 8.976C6.64974 8.90057 6.73597 8.84054 6.83148 8.79952C6.92699 8.75851 7.02979 8.73736 7.13367 8.73736C7.23755 8.73736 7.34035 8.75851 7.43586 8.79952C7.53137 8.84054 7.6176 8.90057 7.68935 8.976C7.7611 9.05142 7.81687 9.14066 7.85329 9.23834C7.88971 9.33601 7.90603 9.44009 7.90126 9.54427V15.2539C7.90603 15.3581 7.88971 15.4622 7.85329 15.5598C7.81687 15.6575 7.7611 15.7468 7.68935 15.8222C7.6176 15.8976 7.53137 15.9576 7.43586 15.9987C7.34035 16.0397 7.23755 16.0608 7.13367 16.0608C7.02979 16.0608 6.92699 16.0397 6.83148 15.9987C6.73597 15.9576 6.64974 15.8976 6.57799 15.8222C6.50624 15.7468 6.45047 15.6575 6.41405 15.5598C6.37763 15.4622 6.36131 15.3581 6.36608 15.2539V9.54427ZM16.6763 6.31185L15.8868 16.7643C15.8283 17.6277 15.4644 18.4416 14.8607 19.0592C14.5668 19.3584 14.2164 19.5957 13.83 19.7573C13.4437 19.9188 13.0291 20.0013 12.6106 20H5.3156C4.89761 20.001 4.48362 19.9183 4.09784 19.7567C3.71205 19.5952 3.3622 19.3581 3.06875 19.0592V19.0592C2.46468 18.4417 2.10019 17.6278 2.04097 16.7643L1.25473 6.31185H0V4.06901C0 3.52865 0.26424 3.32357 0.784615 3.32357H4.47101V1.75618C4.47229 1.29081 4.65699 0.844868 4.98474 0.515798C5.3125 0.186728 5.75666 0.00128853 6.22018 0L11.7109 0C12.1735 0.0025742 12.6164 0.188581 12.9432 0.517513C13.2699 0.846444 13.4539 1.29165 13.4552 1.75618V3.32194H17.2404C17.2947 3.32079 17.3489 3.32406 17.4026 3.33171C17.5418 3.35406 17.6694 3.42297 17.7647 3.52725C17.86 3.63153 17.9175 3.76508 17.9278 3.90625C17.9278 3.9388 17.9278 3.9681 17.9278 3.99902V6.31185H16.6763ZM15.1363 6.33952H2.79478L3.56643 16.6504C3.59732 17.1449 3.80247 17.6122 4.14516 17.9688V17.9688C4.29702 18.1243 4.47843 18.2477 4.67864 18.3315C4.87885 18.4154 5.0938 18.4581 5.31074 18.457H12.6057C12.8226 18.4575 13.0373 18.4146 13.2375 18.3308C13.4376 18.2469 13.6191 18.1239 13.7713 17.9688C14.1154 17.6129 14.3218 17.1454 14.3533 16.6504L15.1363 6.34766V6.33952ZM11.5098 3.32194V1.96126H6.42606V3.32194H11.5098ZM10.0298 9.54427C10.025 9.44009 10.0413 9.33601 10.0777 9.23834C10.1142 9.14066 10.1699 9.05142 10.2417 8.976C10.3134 8.90057 10.3997 8.84054 10.4952 8.79952C10.5907 8.75851 10.6935 8.73736 10.7974 8.73736C10.9012 8.73736 11.004 8.75851 11.0996 8.79952C11.1951 8.84054 11.2813 8.90057 11.353 8.976C11.4248 9.05142 11.4806 9.14066 11.517 9.23834C11.5534 9.33601 11.5697 9.44009 11.565 9.54427V15.2539C11.5697 15.3581 11.5534 15.4622 11.517 15.5598C11.4806 15.6575 11.4248 15.7468 11.353 15.8222C11.2813 15.8976 11.1951 15.9576 11.0996 15.9987C11.004 16.0397 10.9012 16.0608 10.7974 16.0608C10.6935 16.0608 10.5907 16.0397 10.4952 15.9987C10.3997 15.9576 10.3134 15.8976 10.2417 15.8222C10.1699 15.7468 10.1142 15.6575 10.0777 15.5598C10.0413 15.4622 10.025 15.3581 10.0298 15.2539V9.54427V9.54427Z" fill="white"/>
</g>
<defs>
<clipPath id="clip0_5:348">
<rect width="17.931" height="20" fill="white"/>
</clipPath>
</defs>
</svg>
