<svg width="27" height="24" viewBox="0 0 27 24" fill="none" xmlns="http://www.w3.org/2000/svg">
<path fill-rule="evenodd" clip-rule="evenodd" d="M17.0843 2.26415C15.3413 -0.754719 10.9839 -0.754715 9.241 2.26415L0.613433 17.2075C-1.12951 20.2264 1.04917 24 4.53506 24H21.7902C25.2761 24 27.4548 20.2264 25.7118 17.2075L17.0843 2.26415ZM14.1121 16.0549C13.8992 15.8244 13.6356 15.7091 13.3214 15.7091C13.0172 15.7091 12.7587 15.8244 12.5458 16.0549C12.3329 16.2854 12.2264 16.5708 12.2264 16.9111C12.2264 17.2515 12.3329 17.5369 12.5458 17.7674C12.7587 17.9979 13.0172 18.1132 13.3214 18.1132C13.6356 18.1132 13.8992 17.9979 14.1121 17.7674C14.325 17.5369 14.4315 17.2515 14.4315 16.9111C14.4315 16.5708 14.325 16.2854 14.1121 16.0549ZM12.4697 5.43396V14.507H14.2034L14.2034 5.43396H12.4697Z" fill="white"/>
</svg>
