<svg width="41" height="33" viewBox="0 0 41 33" fill="none" xmlns="http://www.w3.org/2000/svg">
<path d="M41 3.9144C39.4922 4.57589 37.8725 5.02283 36.1698 5.22485C37.9267 4.18399 39.2412 2.54579 39.8678 0.615927C38.2172 1.58668 36.4106 2.26998 34.5266 2.63613C33.2597 1.29683 31.5816 0.409126 29.7529 0.110829C27.9243 -0.187467 26.0473 0.120336 24.4134 0.986452C22.7795 1.85257 21.4801 3.22854 20.717 4.90073C19.9538 6.57293 19.7697 8.4478 20.193 10.2342C16.8483 10.068 13.5763 9.20725 10.5893 7.70793C7.60235 6.20861 4.96717 4.1042 2.8548 1.53128C2.13252 2.76485 1.71721 4.19509 1.71721 5.71828C1.71641 7.08951 2.05746 8.43974 2.71012 9.64916C3.36278 10.8586 4.30686 11.8898 5.4586 12.6513C4.12289 12.6093 2.81665 12.2519 1.6486 11.6091V11.7163C1.64846 13.6395 2.32037 15.5035 3.55032 16.9921C4.78026 18.4806 6.49249 19.502 8.39646 19.883C7.15737 20.215 5.85827 20.2639 4.59729 20.026C5.13448 21.6808 6.18087 23.1278 7.58998 24.1646C8.99909 25.2013 10.7004 25.7758 12.4557 25.8077C9.47596 28.1236 5.79606 29.3799 2.00793 29.3743C1.3369 29.3745 0.666437 29.3357 0 29.2581C3.84517 31.7059 8.32123 33.005 12.8926 33C28.3674 33 36.8271 20.3102 36.8271 9.30459C36.8271 8.94704 36.818 8.5859 36.8018 8.22834C38.4473 7.05014 39.8677 5.59116 40.9964 3.91977L41 3.9144V3.9144Z" fill="white"/>
</svg>
