<svg width="27" height="25" viewBox="0 0 27 25" fill="none" xmlns="http://www.w3.org/2000/svg">
<path d="M9.47786 2.32219C11.2655 -0.774059 15.7345 -0.774063 17.5221 2.32218L26.3708 17.6486C28.1585 20.7448 25.9239 24.6151 22.3487 24.6151H4.6513C1.07606 24.6151 -1.15846 20.7448 0.629156 17.6486L9.47786 2.32219Z" fill="#E32E2E"/>
<path d="M13.3215 15.7087C13.6358 15.7087 13.8994 15.824 14.1123 16.0545C14.3252 16.2851 14.4316 16.5705 14.4316 16.9108C14.4316 17.2511 14.3252 17.5365 14.1123 17.767C13.8994 17.9976 13.6358 18.1128 13.3215 18.1128C13.0174 18.1128 12.7588 17.9976 12.5459 17.767C12.333 17.5365 12.2266 17.2511 12.2266 16.9108C12.2266 16.5705 12.333 16.2851 12.5459 16.0545C12.7588 15.824 13.0174 15.7087 13.3215 15.7087ZM12.4699 14.5067L12.4699 5.43359L14.2035 5.43359L14.2035 14.5067H12.4699Z" fill="white"/>
</svg>
