<svg width="24" height="24" viewBox="0 0 24 24" fill="none" xmlns="http://www.w3.org/2000/svg">
<path d="M9 3H4C3.44772 3 3 3.44772 3 4V9C3 9.55228 3.44772 10 4 10H9C9.55228 10 10 9.55228 10 9V4C10 3.44772 9.55228 3 9 3Z" stroke="white" stroke-width="1.5" stroke-linecap="round" stroke-linejoin="round"/>
<path d="M21.7426 5.79293L18.2071 2.2574C17.8166 1.86688 17.1834 1.86688 16.7929 2.2574L13.2574 5.79293C12.8668 6.18346 12.8668 6.81662 13.2574 7.20715L16.7929 10.7427C17.1834 11.1332 17.8166 11.1332 18.2071 10.7427L21.7426 7.20715C22.1332 6.81662 22.1332 6.18346 21.7426 5.79293Z" stroke="white" stroke-width="1.5" stroke-linecap="round" stroke-linejoin="round"/>
<path d="M20 14H15C14.4477 14 14 14.4477 14 15V20C14 20.5523 14.4477 21 15 21H20C20.5523 21 21 20.5523 21 20V15C21 14.4477 20.5523 14 20 14Z" stroke="white" stroke-width="1.5" stroke-linecap="round" stroke-linejoin="round"/>
<path d="M9 14H4C3.44772 14 3 14.4477 3 15V20C3 20.5523 3.44772 21 4 21H9C9.55228 21 10 20.5523 10 20V15C10 14.4477 9.55228 14 9 14Z" stroke="white" stroke-width="1.5" stroke-linecap="round" stroke-linejoin="round"/>
</svg>
