<svg width="20" height="20" viewBox="0 0 20 20" fill="none" xmlns="http://www.w3.org/2000/svg">
<g opacity="0.5">
<path d="M15.5892 10.244C15.9147 10.5694 15.9147 11.0971 15.5892 11.4225L10.5892 16.4225C10.433 16.5788 10.221 16.6666 9.99998 16.6666C9.77896 16.6666 9.567 16.5788 9.41072 16.4225L4.41072 11.4225C4.08529 11.0971 4.08529 10.5694 4.41072 10.244C4.73616 9.91856 5.2638 9.91856 5.58924 10.244L9.16665 13.8214L9.16665 4.16658C9.16665 3.70635 9.53974 3.33325 9.99998 3.33325C10.4602 3.33325 10.8333 3.70635 10.8333 4.16658L10.8333 13.8214L14.4107 10.244C14.7362 9.91856 15.2638 9.91856 15.5892 10.244Z" fill="white"/>
</g>
</svg>
